{
	"asset":{
		"generator":"Khronos glTF Blender I/O v4.2.57",
		"version":"2.0"
	},
	"scene":0,
	"scenes":[
		{
			"extras":{
				"GodotPipelineProps":{
					"export_UI":1,
					"save_path":"//button.gltf",
					"counter":1
				}
			},
			"name":"Scene",
			"nodes":[
				0
			]
		}
	],
	"nodes":[
		{
			"mesh":0,
			"name":"Cylinder",
			"rotation":[
				0,
				1,
				0,
				0
			],
			"scale":[
				-1,
				-0.09936940670013428,
				-1
			]
		}
	],
	"materials":[
		{
			"doubleSided":true,
			"name":"Material",
			"pbrMetallicRoughness":{
				"baseColorFactor":[
					0.8001489639282227,
					0,
					0.004401547834277153,
					1
				],
				"metallicFactor":0,
				"roughnessFactor":0.8316062092781067
			}
		}
	],
	"meshes":[
		{
			"name":"Cylinder",
			"primitives":[
				{
					"attributes":{
						"POSITION":0,
						"NORMAL":1,
						"TEXCOORD_0":2
					},
					"indices":3,
					"material":0
				}
			]
		}
	],
	"accessors":[
		{
			"bufferView":0,
			"componentType":5126,
			"count":416,
			"max":[
				1,
				1,
				1
			],
			"min":[
				-1,
				-1,
				-1
			],
			"type":"VEC3"
		},
		{
			"bufferView":1,
			"componentType":5126,
			"count":416,
			"type":"VEC3"
		},
		{
			"bufferView":2,
			"componentType":5126,
			"count":416,
			"type":"VEC2"
		},
		{
			"bufferView":3,
			"componentType":5123,
			"count":780,
			"type":"SCALAR"
		}
	],
	"bufferViews":[
		{
			"buffer":0,
			"byteLength":4992,
			"byteOffset":0,
			"target":34962
		},
		{
			"buffer":0,
			"byteLength":4992,
			"byteOffset":4992,
			"target":34962
		},
		{
			"buffer":0,
			"byteLength":3328,
			"byteOffset":9984,
			"target":34962
		},
		{
			"buffer":0,
			"byteLength":1560,
			"byteOffset":13312,
			"target":34963
		}
	],
	"buffers":[
		{
			"byteLength":14872,
			"uri":"button.bin"
		}
	]
}
