{
	"asset":{
		"generator":"Khronos glTF Blender I/O v4.2.57",
		"version":"2.0"
	},
	"scene":0,
	"scenes":[
		{
			"extras":{
				"GodotPipelineProps":{
					"export_UI":1,
					"save_path":"//forest_collision.gltf",
					"counter":1
				}
			},
			"name":"Scene",
			"nodes":[
				0,
				1
			]
		}
	],
	"nodes":[
		{
			"mesh":0,
			"name":"Circle.001",
			"scale":[
				3.2132773399353027,
				3.2132773399353027,
				3.2132773399353027
			],
			"translation":[
				0,
				-5,
				0
			]
		},
		{
			"mesh":1,
			"name":"Circle",
			"rotation":[
				0.08153573423624039,
				0.08153573423624039,
				-0.7023901343345642,
				0.702390193939209
			]
		}
	],
	"materials":[
		{
			"doubleSided":true,
			"name":"Material.001",
			"pbrMetallicRoughness":{
				"baseColorTexture":{
					"index":0
				},
				"metallicFactor":0
			}
		}
	],
	"meshes":[
		{
			"name":"Circle.002",
			"primitives":[
				{
					"attributes":{
						"POSITION":0,
						"NORMAL":1,
						"TEXCOORD_0":2
					},
					"indices":3,
					"material":0
				}
			]
		},
		{
			"name":"Circle",
			"primitives":[
				{
					"attributes":{
						"POSITION":4,
						"NORMAL":5,
						"TEXCOORD_0":6
					},
					"indices":7,
					"material":0
				}
			]
		}
	],
	"textures":[
		{
			"sampler":0,
			"source":0
		}
	],
	"images":[
		{
			"mimeType":"image/png",
			"name":"darkwood",
			"uri":"darkwood.png"
		}
	],
	"accessors":[
		{
			"bufferView":0,
			"componentType":5126,
			"count":100,
			"max":[
				0.9510565400123596,
				8.091426849365234,
				1
			],
			"min":[
				-0.9510565400123596,
				-1.2448350191116333,
				-1
			],
			"type":"VEC3"
		},
		{
			"bufferView":1,
			"componentType":5126,
			"count":100,
			"type":"VEC3"
		},
		{
			"bufferView":2,
			"componentType":5126,
			"count":100,
			"type":"VEC2"
		},
		{
			"bufferView":3,
			"componentType":5123,
			"count":168,
			"type":"SCALAR"
		},
		{
			"bufferView":4,
			"componentType":5126,
			"count":154,
			"max":[
				0.9749279022216797,
				24.035987854003906,
				0.9009688496589661
			],
			"min":[
				-4.173313140869141,
				0,
				-1.0717920064926147
			],
			"type":"VEC3"
		},
		{
			"bufferView":5,
			"componentType":5126,
			"count":154,
			"type":"VEC3"
		},
		{
			"bufferView":6,
			"componentType":5126,
			"count":154,
			"type":"VEC2"
		},
		{
			"bufferView":7,
			"componentType":5123,
			"count":240,
			"type":"SCALAR"
		}
	],
	"bufferViews":[
		{
			"buffer":0,
			"byteLength":1200,
			"byteOffset":0,
			"target":34962
		},
		{
			"buffer":0,
			"byteLength":1200,
			"byteOffset":1200,
			"target":34962
		},
		{
			"buffer":0,
			"byteLength":800,
			"byteOffset":2400,
			"target":34962
		},
		{
			"buffer":0,
			"byteLength":336,
			"byteOffset":3200,
			"target":34963
		},
		{
			"buffer":0,
			"byteLength":1848,
			"byteOffset":3536,
			"target":34962
		},
		{
			"buffer":0,
			"byteLength":1848,
			"byteOffset":5384,
			"target":34962
		},
		{
			"buffer":0,
			"byteLength":1232,
			"byteOffset":7232,
			"target":34962
		},
		{
			"buffer":0,
			"byteLength":480,
			"byteOffset":8464,
			"target":34963
		}
	],
	"samplers":[
		{
			"magFilter":9728,
			"minFilter":9984
		}
	],
	"buffers":[
		{
			"byteLength":8944,
			"uri":"forest_collision.bin"
		}
	]
}
