{
	"asset":{
		"generator":"Khronos glTF Blender I/O v4.2.57",
		"version":"2.0"
	},
	"scene":0,
	"scenes":[
		{
			"extras":{
				"GodotPipelineProps":{
					"export_UI":1,
					"save_path":"C:\\Users\\prall\\Documents\\GMTK_2024_prototype\\art\\forest_leaves.gltf",
					"counter":4
				}
			},
			"name":"Scene",
			"nodes":[
				0,
				1,
				2
			]
		}
	],
	"nodes":[
		{
			"mesh":0,
			"name":"Plane.033",
			"rotation":[
				0.7071068286895752,
				0,
				0,
				0.7071068286895752
			],
			"scale":[
				592.7051391601562,
				592.7051391601562,
				592.7051391601562
			],
			"translation":[
				-206.17669677734375,
				-20.168132781982422,
				-552.1039428710938
			]
		},
		{
			"mesh":1,
			"name":"Plane.031",
			"rotation":[
				0,
				-0.7071068286895752,
				0.7071068286895752,
				1.1520234011186403e-07
			],
			"scale":[
				24.867769241333008,
				24.867769241333008,
				24.867769241333008
			],
			"translation":[
				2.2437031269073486,
				17.11452293395996,
				-38.20267105102539
			]
		},
		{
			"mesh":2,
			"name":"Plane.030",
			"rotation":[
				0.7071068286895752,
				0,
				0,
				0.7071068286895752
			],
			"scale":[
				40.50394058227539,
				40.50394058227539,
				40.50394058227539
			],
			"translation":[
				44.012245178222656,
				-0.6415128707885742,
				-18.187501907348633
			]
		}
	],
	"materials":[
		{
			"doubleSided":true,
			"name":"clouds",
			"pbrMetallicRoughness":{
				"baseColorTexture":{
					"index":0
				},
				"metallicFactor":0,
				"roughnessFactor":0.5
			}
		},
		{
			"doubleSided":true,
			"name":"foliage",
			"pbrMetallicRoughness":{
				"baseColorTexture":{
					"index":1
				},
				"metallicFactor":0,
				"roughnessFactor":0.5
			}
		}
	],
	"meshes":[
		{
			"name":"Plane.033",
			"primitives":[
				{
					"attributes":{
						"POSITION":0,
						"NORMAL":1,
						"TEXCOORD_0":2
					},
					"indices":3,
					"material":0
				}
			]
		},
		{
			"name":"Plane.031",
			"primitives":[
				{
					"attributes":{
						"POSITION":4,
						"NORMAL":5,
						"TEXCOORD_0":6
					},
					"indices":7,
					"material":1
				}
			]
		},
		{
			"name":"Plane.030",
			"primitives":[
				{
					"attributes":{
						"POSITION":8,
						"NORMAL":9,
						"TEXCOORD_0":10
					},
					"indices":7,
					"material":1
				}
			]
		}
	],
	"textures":[
		{
			"sampler":0,
			"source":0
		},
		{
			"sampler":0,
			"source":1
		}
	],
	"images":[
		{
			"mimeType":"image/png",
			"name":"clouds",
			"uri":"clouds.png"
		},
		{
			"mimeType":"image/png",
			"name":"foliage",
			"uri":"foliage.png"
		}
	],
	"accessors":[
		{
			"bufferView":0,
			"componentType":5126,
			"count":4,
			"max":[
				2.461052894592285,
				0,
				1
			],
			"min":[
				-1,
				0,
				-1
			],
			"type":"VEC3"
		},
		{
			"bufferView":1,
			"componentType":5126,
			"count":4,
			"type":"VEC3"
		},
		{
			"bufferView":2,
			"componentType":5126,
			"count":4,
			"type":"VEC2"
		},
		{
			"bufferView":3,
			"componentType":5123,
			"count":6,
			"type":"SCALAR"
		},
		{
			"bufferView":4,
			"componentType":5126,
			"count":151,
			"max":[
				2.225341320037842,
				0,
				0.759081244468689
			],
			"min":[
				-0.6332879662513733,
				0,
				-1
			],
			"type":"VEC3"
		},
		{
			"bufferView":5,
			"componentType":5126,
			"count":151,
			"type":"VEC3"
		},
		{
			"bufferView":6,
			"componentType":5126,
			"count":151,
			"type":"VEC2"
		},
		{
			"bufferView":7,
			"componentType":5123,
			"count":471,
			"type":"SCALAR"
		},
		{
			"bufferView":8,
			"componentType":5126,
			"count":151,
			"max":[
				2.225341320037842,
				0,
				0.759081244468689
			],
			"min":[
				-0.6332879662513733,
				0,
				-1
			],
			"type":"VEC3"
		},
		{
			"bufferView":9,
			"componentType":5126,
			"count":151,
			"type":"VEC3"
		},
		{
			"bufferView":10,
			"componentType":5126,
			"count":151,
			"type":"VEC2"
		}
	],
	"bufferViews":[
		{
			"buffer":0,
			"byteLength":48,
			"byteOffset":0,
			"target":34962
		},
		{
			"buffer":0,
			"byteLength":48,
			"byteOffset":48,
			"target":34962
		},
		{
			"buffer":0,
			"byteLength":32,
			"byteOffset":96,
			"target":34962
		},
		{
			"buffer":0,
			"byteLength":12,
			"byteOffset":128,
			"target":34963
		},
		{
			"buffer":0,
			"byteLength":1812,
			"byteOffset":140,
			"target":34962
		},
		{
			"buffer":0,
			"byteLength":1812,
			"byteOffset":1952,
			"target":34962
		},
		{
			"buffer":0,
			"byteLength":1208,
			"byteOffset":3764,
			"target":34962
		},
		{
			"buffer":0,
			"byteLength":942,
			"byteOffset":4972,
			"target":34963
		},
		{
			"buffer":0,
			"byteLength":1812,
			"byteOffset":5916,
			"target":34962
		},
		{
			"buffer":0,
			"byteLength":1812,
			"byteOffset":7728,
			"target":34962
		},
		{
			"buffer":0,
			"byteLength":1208,
			"byteOffset":9540,
			"target":34962
		}
	],
	"samplers":[
		{
			"magFilter":9728,
			"minFilter":9984
		}
	],
	"buffers":[
		{
			"byteLength":10748,
			"uri":"forest_leaves.bin"
		}
	]
}
