{
	"asset":{
		"generator":"Khronos glTF Blender I/O v4.2.57",
		"version":"2.0"
	},
	"scene":0,
	"scenes":[
		{
			"extras":{
				"GodotPipelineProps":{
					"collision_UI":1,
					"col_types":2,
					"export_UI":1,
					"save_path":"//jack.gltf",
					"counter":2
				}
			},
			"name":"Scene",
			"nodes":[
				0,
				1
			]
		}
	],
	"nodes":[
		{
			"mesh":0,
			"name":"Cube",
			"scale":[
				0.0011105476878583431,
				0.0011105476878583431,
				0.0011105476878583431
			]
		},
		{
			"mesh":1,
			"name":"Sphere",
			"scale":[
				0.0011105476878583431,
				0.0011105476878583431,
				0.0011105476878583431
			]
		}
	],
	"materials":[
		{
			"doubleSided":true,
			"name":"Metal",
			"pbrMetallicRoughness":{
				"baseColorFactor":[
					0.4877958297729492,
					0.4877958297729492,
					0.4877958297729492,
					1
				],
				"roughnessFactor":0.5
			}
		}
	],
	"meshes":[
		{
			"name":"Cube",
			"primitives":[
				{
					"attributes":{
						"POSITION":0,
						"NORMAL":1,
						"TEXCOORD_0":2
					},
					"indices":3,
					"material":0
				}
			]
		},
		{
			"name":"Sphere",
			"primitives":[
				{
					"attributes":{
						"POSITION":4,
						"NORMAL":5,
						"TEXCOORD_0":6
					},
					"indices":7,
					"material":0
				}
			]
		}
	],
	"accessors":[
		{
			"bufferView":0,
			"componentType":5126,
			"count":369,
			"max":[
				6.95570182800293,
				6.839301586151123,
				6.949853897094727
			],
			"min":[
				-6.949613571166992,
				-6.853776931762695,
				-6.97191047668457
			],
			"type":"VEC3"
		},
		{
			"bufferView":1,
			"componentType":5126,
			"count":369,
			"type":"VEC3"
		},
		{
			"bufferView":2,
			"componentType":5126,
			"count":369,
			"type":"VEC2"
		},
		{
			"bufferView":3,
			"componentType":5123,
			"count":1968,
			"type":"SCALAR"
		},
		{
			"bufferView":4,
			"componentType":5126,
			"count":172,
			"max":[
				8.864763259887695,
				2.1639151573181152,
				9.219391822814941
			],
			"min":[
				-8.627023696899414,
				-2.1639151573181152,
				-8.41295337677002
			],
			"type":"VEC3"
		},
		{
			"bufferView":5,
			"componentType":5126,
			"count":172,
			"type":"VEC3"
		},
		{
			"bufferView":6,
			"componentType":5126,
			"count":172,
			"type":"VEC2"
		},
		{
			"bufferView":7,
			"componentType":5123,
			"count":576,
			"type":"SCALAR"
		}
	],
	"bufferViews":[
		{
			"buffer":0,
			"byteLength":4428,
			"byteOffset":0,
			"target":34962
		},
		{
			"buffer":0,
			"byteLength":4428,
			"byteOffset":4428,
			"target":34962
		},
		{
			"buffer":0,
			"byteLength":2952,
			"byteOffset":8856,
			"target":34962
		},
		{
			"buffer":0,
			"byteLength":3936,
			"byteOffset":11808,
			"target":34963
		},
		{
			"buffer":0,
			"byteLength":2064,
			"byteOffset":15744,
			"target":34962
		},
		{
			"buffer":0,
			"byteLength":2064,
			"byteOffset":17808,
			"target":34962
		},
		{
			"buffer":0,
			"byteLength":1376,
			"byteOffset":19872,
			"target":34962
		},
		{
			"buffer":0,
			"byteLength":1152,
			"byteOffset":21248,
			"target":34963
		}
	],
	"buffers":[
		{
			"byteLength":22400,
			"uri":"jack.bin"
		}
	]
}
