{
	"asset":{
		"generator":"Khronos glTF Blender I/O v4.2.57",
		"version":"2.0"
	},
	"scene":0,
	"scenes":[
		{
			"extras":{
				"GodotPipelineProps":{
					"collision_UI":0,
					"export_UI":1,
					"save_path":"//measuringtape.gltf",
					"counter":1
				}
			},
			"name":"Scene",
			"nodes":[
				0,
				1
			]
		}
	],
	"nodes":[
		{
			"mesh":0,
			"name":"Cube",
			"scale":[
				0.019513584673404694,
				0.019513584673404694,
				0.019513584673404694
			]
		},
		{
			"mesh":1,
			"name":"Plane"
		}
	],
	"materials":[
		{
			"doubleSided":true,
			"name":"Red",
			"pbrMetallicRoughness":{
				"baseColorFactor":[
					0.8003470301628113,
					0,
					0.004204968456178904,
					1
				],
				"metallicFactor":0,
				"roughnessFactor":0.5
			}
		},
		{
			"doubleSided":true,
			"name":"White",
			"pbrMetallicRoughness":{
				"baseColorFactor":[
					0.800000011920929,
					0.800000011920929,
					0.800000011920929,
					1
				],
				"metallicFactor":0,
				"roughnessFactor":0.5
			}
		},
		{
			"doubleSided":true,
			"name":"TapeTicks",
			"pbrMetallicRoughness":{
				"baseColorTexture":{
					"index":0
				},
				"metallicFactor":0,
				"roughnessFactor":0.5
			}
		},
		{
			"doubleSided":true,
			"name":"Black",
			"pbrMetallicRoughness":{
				"baseColorFactor":[
					0,
					0,
					0,
					1
				],
				"metallicFactor":0,
				"roughnessFactor":0.5
			}
		}
	],
	"meshes":[
		{
			"name":"Cube",
			"primitives":[
				{
					"attributes":{
						"POSITION":0,
						"NORMAL":1,
						"TEXCOORD_0":2
					},
					"indices":3,
					"material":0
				},
				{
					"attributes":{
						"POSITION":4,
						"NORMAL":5,
						"TEXCOORD_0":6
					},
					"indices":7,
					"material":1
				}
			]
		},
		{
			"name":"Plane",
			"primitives":[
				{
					"attributes":{
						"POSITION":8,
						"NORMAL":9,
						"TEXCOORD_0":10
					},
					"indices":11,
					"material":2
				},
				{
					"attributes":{
						"POSITION":12,
						"NORMAL":13,
						"TEXCOORD_0":14
					},
					"indices":11,
					"material":3
				}
			]
		}
	],
	"textures":[
		{
			"sampler":0,
			"source":0
		}
	],
	"images":[
		{
			"mimeType":"image/png",
			"name":"tapeticks",
			"uri":"tapeticks.png"
		}
	],
	"accessors":[
		{
			"bufferView":0,
			"componentType":5126,
			"count":76,
			"max":[
				0.34747040271759033,
				1,
				1
			],
			"min":[
				-0.34747040271759033,
				-1,
				-1.3246142864227295
			],
			"type":"VEC3"
		},
		{
			"bufferView":1,
			"componentType":5126,
			"count":76,
			"type":"VEC3"
		},
		{
			"bufferView":2,
			"componentType":5126,
			"count":76,
			"type":"VEC2"
		},
		{
			"bufferView":3,
			"componentType":5123,
			"count":132,
			"type":"SCALAR"
		},
		{
			"bufferView":4,
			"componentType":5126,
			"count":12,
			"max":[
				0.34747040271759033,
				0.8523788452148438,
				0.8523788452148438
			],
			"min":[
				-0.34747040271759033,
				-0.8523788452148438,
				-0.8523788452148438
			],
			"type":"VEC3"
		},
		{
			"bufferView":5,
			"componentType":5126,
			"count":12,
			"type":"VEC3"
		},
		{
			"bufferView":6,
			"componentType":5126,
			"count":12,
			"type":"VEC2"
		},
		{
			"bufferView":7,
			"componentType":5123,
			"count":24,
			"type":"SCALAR"
		},
		{
			"bufferView":8,
			"componentType":5126,
			"count":4,
			"max":[
				-0.0003516670549288392,
				0.0016540959477424622,
				-0.02128523588180542
			],
			"min":[
				-0.00035166897578164935,
				-0.0173061303794384,
				-0.9227826595306396
			],
			"type":"VEC3"
		},
		{
			"bufferView":9,
			"componentType":5126,
			"count":4,
			"type":"VEC3"
		},
		{
			"bufferView":10,
			"componentType":5126,
			"count":4,
			"type":"VEC2"
		},
		{
			"bufferView":11,
			"componentType":5123,
			"count":6,
			"type":"SCALAR"
		},
		{
			"bufferView":12,
			"componentType":5126,
			"count":4,
			"max":[
				0.011325186118483543,
				0.0016540959477424622,
				-0.9227826595306396
			],
			"min":[
				-0.00035166897578164935,
				-0.0173061303794384,
				-0.928038477897644
			],
			"type":"VEC3"
		},
		{
			"bufferView":13,
			"componentType":5126,
			"count":4,
			"type":"VEC3"
		},
		{
			"bufferView":14,
			"componentType":5126,
			"count":4,
			"type":"VEC2"
		}
	],
	"bufferViews":[
		{
			"buffer":0,
			"byteLength":912,
			"byteOffset":0,
			"target":34962
		},
		{
			"buffer":0,
			"byteLength":912,
			"byteOffset":912,
			"target":34962
		},
		{
			"buffer":0,
			"byteLength":608,
			"byteOffset":1824,
			"target":34962
		},
		{
			"buffer":0,
			"byteLength":264,
			"byteOffset":2432,
			"target":34963
		},
		{
			"buffer":0,
			"byteLength":144,
			"byteOffset":2696,
			"target":34962
		},
		{
			"buffer":0,
			"byteLength":144,
			"byteOffset":2840,
			"target":34962
		},
		{
			"buffer":0,
			"byteLength":96,
			"byteOffset":2984,
			"target":34962
		},
		{
			"buffer":0,
			"byteLength":48,
			"byteOffset":3080,
			"target":34963
		},
		{
			"buffer":0,
			"byteLength":48,
			"byteOffset":3128,
			"target":34962
		},
		{
			"buffer":0,
			"byteLength":48,
			"byteOffset":3176,
			"target":34962
		},
		{
			"buffer":0,
			"byteLength":32,
			"byteOffset":3224,
			"target":34962
		},
		{
			"buffer":0,
			"byteLength":12,
			"byteOffset":3256,
			"target":34963
		},
		{
			"buffer":0,
			"byteLength":48,
			"byteOffset":3268,
			"target":34962
		},
		{
			"buffer":0,
			"byteLength":48,
			"byteOffset":3316,
			"target":34962
		},
		{
			"buffer":0,
			"byteLength":32,
			"byteOffset":3364,
			"target":34962
		}
	],
	"samplers":[
		{
			"magFilter":9728,
			"minFilter":9984
		}
	],
	"buffers":[
		{
			"byteLength":3396,
			"uri":"measuringtape.bin"
		}
	]
}
