{
	"asset":{
		"generator":"Khronos glTF Blender I/O v4.2.57",
		"version":"2.0"
	},
	"scene":0,
	"scenes":[
		{
			"extras":{
				"GodotPipelineProps":{
					"export_UI":1,
					"counter":2,
					"save_path":"//roundbead.gltf"
				}
			},
			"name":"Scene",
			"nodes":[
				0
			]
		}
	],
	"nodes":[
		{
			"mesh":0,
			"name":"Sphere"
		}
	],
	"materials":[
		{
			"doubleSided":true,
			"name":"Material.001",
			"pbrMetallicRoughness":{
				"baseColorFactor":[
					0.06614502519369125,
					0.053664349019527435,
					0.8001965880393982,
					1
				],
				"metallicFactor":0.9166666865348816,
				"roughnessFactor":0.5
			}
		}
	],
	"meshes":[
		{
			"name":"Sphere",
			"primitives":[
				{
					"attributes":{
						"POSITION":0,
						"NORMAL":1,
						"TEXCOORD_0":2
					},
					"indices":3,
					"material":0
				}
			]
		}
	],
	"accessors":[
		{
			"bufferView":0,
			"componentType":5126,
			"count":157,
			"max":[
				1,
				0.5555702447891235,
				1
			],
			"min":[
				-0.9999999403953552,
				-0.5555702447891235,
				-0.9999999403953552
			],
			"type":"VEC3"
		},
		{
			"bufferView":1,
			"componentType":5126,
			"count":157,
			"type":"VEC3"
		},
		{
			"bufferView":2,
			"componentType":5126,
			"count":157,
			"type":"VEC2"
		},
		{
			"bufferView":3,
			"componentType":5123,
			"count":780,
			"type":"SCALAR"
		}
	],
	"bufferViews":[
		{
			"buffer":0,
			"byteLength":1884,
			"byteOffset":0,
			"target":34962
		},
		{
			"buffer":0,
			"byteLength":1884,
			"byteOffset":1884,
			"target":34962
		},
		{
			"buffer":0,
			"byteLength":1256,
			"byteOffset":3768,
			"target":34962
		},
		{
			"buffer":0,
			"byteLength":1560,
			"byteOffset":5024,
			"target":34963
		}
	],
	"buffers":[
		{
			"byteLength":6584,
			"uri":"roundbead.bin"
		}
	]
}
