{
	"asset":{
		"generator":"Khronos glTF Blender I/O v4.2.57",
		"version":"2.0"
	},
	"scene":0,
	"scenes":[
		{
			"extras":{
				"GodotPipelineProps":{
					"export_UI":1,
					"save_path":"//woodenarch.gltf",
					"counter":4
				}
			},
			"name":"Scene",
			"nodes":[
				0
			]
		}
	],
	"nodes":[
		{
			"mesh":0,
			"name":"Cube"
		}
	],
	"materials":[
		{
			"doubleSided":true,
			"name":"Material",
			"pbrMetallicRoughness":{
				"baseColorTexture":{
					"index":0
				},
				"metallicFactor":0,
				"roughnessFactor":0.5
			}
		}
	],
	"meshes":[
		{
			"name":"Cube",
			"primitives":[
				{
					"attributes":{
						"POSITION":0,
						"NORMAL":1,
						"TEXCOORD_0":2
					},
					"indices":3,
					"material":0
				}
			]
		}
	],
	"textures":[
		{
			"sampler":0,
			"source":0
		}
	],
	"images":[
		{
			"mimeType":"image/png",
			"name":"wood",
			"uri":"wood.png"
		}
	],
	"accessors":[
		{
			"bufferView":0,
			"componentType":5126,
			"count":126,
			"max":[
				0.03766823187470436,
				0.03766823187470436,
				0.03766823187470436
			],
			"min":[
				-0.03766823187470436,
				-0.03766823187470436,
				-0.1553797870874405
			],
			"type":"VEC3"
		},
		{
			"bufferView":1,
			"componentType":5126,
			"count":126,
			"type":"VEC3"
		},
		{
			"bufferView":2,
			"componentType":5126,
			"count":126,
			"type":"VEC2"
		},
		{
			"bufferView":3,
			"componentType":5123,
			"count":240,
			"type":"SCALAR"
		}
	],
	"bufferViews":[
		{
			"buffer":0,
			"byteLength":1512,
			"byteOffset":0,
			"target":34962
		},
		{
			"buffer":0,
			"byteLength":1512,
			"byteOffset":1512,
			"target":34962
		},
		{
			"buffer":0,
			"byteLength":1008,
			"byteOffset":3024,
			"target":34962
		},
		{
			"buffer":0,
			"byteLength":480,
			"byteOffset":4032,
			"target":34963
		}
	],
	"samplers":[
		{
			"magFilter":9728,
			"minFilter":9984
		}
	],
	"buffers":[
		{
			"byteLength":4512,
			"uri":"woodenarch.bin"
		}
	]
}
