{
	"asset":{
		"generator":"Khronos glTF Blender I/O v4.2.57",
		"version":"2.0"
	},
	"scene":0,
	"scenes":[
		{
			"extras":{
				"GodotPipelineProps":{
					"collision_UI":1,
					"export_UI":1,
					"save_path":"//worldsbestmom.gltf",
					"counter":3
				}
			},
			"name":"Scene",
			"nodes":[
				0
			]
		}
	],
	"nodes":[
		{
			"mesh":0,
			"name":"Plane",
			"rotation":[
				0,
				0,
				-0.7071068286895752,
				0.7071068286895752
			],
			"scale":[
				0.018049154430627823,
				0.018049154430627823,
				0.018049154430627823
			],
			"translation":[
				0.024699294939637184,
				0.02707267552614212,
				0.002294013276696205
			]
		}
	],
	"materials":[
		{
			"doubleSided":true,
			"name":"Red",
			"pbrMetallicRoughness":{
				"baseColorFactor":[
					1,
					0,
					0,
					1
				],
				"metallicFactor":0,
				"roughnessFactor":0.5
			}
		},
		{
			"doubleSided":true,
			"name":"WorldsBestMom",
			"pbrMetallicRoughness":{
				"baseColorTexture":{
					"index":0
				},
				"metallicFactor":0,
				"roughnessFactor":0.5
			}
		}
	],
	"meshes":[
		{
			"name":"Plane",
			"primitives":[
				{
					"attributes":{
						"POSITION":0,
						"NORMAL":1,
						"TEXCOORD_0":2
					},
					"indices":3,
					"material":0
				},
				{
					"attributes":{
						"POSITION":4,
						"NORMAL":5,
						"TEXCOORD_0":6
					},
					"indices":7,
					"material":1
				}
			]
		}
	],
	"textures":[
		{
			"sampler":0,
			"source":0
		}
	],
	"images":[
		{
			"mimeType":"image/png",
			"name":"worldsbestmom",
			"uri":"worldsbestmom.png"
		}
	],
	"accessors":[
		{
			"bufferView":0,
			"componentType":5126,
			"count":1609,
			"max":[
				1.543950080871582,
				1.672776699066162,
				1.8175675868988037
			],
			"min":[
				-1.6881840229034424,
				-1.9618339538574219,
				-1.1706626415252686
			],
			"type":"VEC3"
		},
		{
			"bufferView":1,
			"componentType":5126,
			"count":1609,
			"type":"VEC3"
		},
		{
			"bufferView":2,
			"componentType":5126,
			"count":1609,
			"type":"VEC2"
		},
		{
			"bufferView":3,
			"componentType":5123,
			"count":2490,
			"type":"SCALAR"
		},
		{
			"bufferView":4,
			"componentType":5126,
			"count":28,
			"max":[
				0.7899962663650513,
				0.9538114070892334,
				1.8175675868988037
			],
			"min":[
				-1.2917242050170898,
				-0.9189509749412537,
				0.13565587997436523
			],
			"type":"VEC3"
		},
		{
			"bufferView":5,
			"componentType":5126,
			"count":28,
			"type":"VEC3"
		},
		{
			"bufferView":6,
			"componentType":5126,
			"count":28,
			"type":"VEC2"
		},
		{
			"bufferView":7,
			"componentType":5123,
			"count":42,
			"type":"SCALAR"
		}
	],
	"bufferViews":[
		{
			"buffer":0,
			"byteLength":19308,
			"byteOffset":0,
			"target":34962
		},
		{
			"buffer":0,
			"byteLength":19308,
			"byteOffset":19308,
			"target":34962
		},
		{
			"buffer":0,
			"byteLength":12872,
			"byteOffset":38616,
			"target":34962
		},
		{
			"buffer":0,
			"byteLength":4980,
			"byteOffset":51488,
			"target":34963
		},
		{
			"buffer":0,
			"byteLength":336,
			"byteOffset":56468,
			"target":34962
		},
		{
			"buffer":0,
			"byteLength":336,
			"byteOffset":56804,
			"target":34962
		},
		{
			"buffer":0,
			"byteLength":224,
			"byteOffset":57140,
			"target":34962
		},
		{
			"buffer":0,
			"byteLength":84,
			"byteOffset":57364,
			"target":34963
		}
	],
	"samplers":[
		{
			"magFilter":9728,
			"minFilter":9984
		}
	],
	"buffers":[
		{
			"byteLength":57448,
			"uri":"worldsbestmom.bin"
		}
	]
}
